<?xml version="1.0" encoding="iso-8859-1"?>
<!-- Generator: Adobe Illustrator 18.1.1, SVG Export Plug-In . SVG Version: 6.00 Build 0)  -->
<svg version="1.1" id="Capa_1" xmlns="http://www.w3.org/2000/svg" xmlns:xlink="http://www.w3.org/1999/xlink" x="0px" y="0px"
	 viewBox="0 0 59.831 59.831" style="enable-background:new 0 0 59.831 59.831;" xml:space="preserve">
<g>
	<path style="fill:#030104;" d="M50.651,10.354c0.12-0.86-0.858-1.239-1.187-1.364L34.677,3.347
		c-0.749-0.285-1.852-1.082-2.356-1.705l-0.632-0.778C31.235,0.307,30.623,0,29.967,0c-0.688,0-1.335,0.348-1.778,0.95l-0.336,0.457
		c-0.468,0.637-1.523,1.444-2.261,1.728L10.366,8.986C10.04,9.113,9.065,9.493,9.182,10.35c-0.001,0.025-0.015,0.046-0.015,0.072
		v5.692c0,0.481,0.389,0.869,0.87,0.869s0.869-0.389,0.869-0.869v-4.823h13.485l-8.412,47.52c-0.084,0.473,0.232,0.924,0.706,1.006
		c0.47,0.087,0.922-0.231,1.006-0.703l2.003-11.312h20.537l2.265,11.331c0.084,0.412,0.446,0.698,0.852,0.698
		c0.057,0,0.114-0.005,0.171-0.018c0.471-0.094,0.777-0.551,0.684-1.021l-9.489-47.501h14.211v4.823c0,0.481,0.39,0.869,0.869,0.869
		c0.482,0,0.871-0.389,0.871-0.869v-5.692C50.666,10.397,50.653,10.377,50.651,10.354z M23.59,25.801h4.238l-5.432,6.736
		L23.59,25.801z M22.769,34.847l6.891-8.548l7.181,8.548H22.769z M34.925,36.585l-5.21,3.049l-5.437-3.049H34.925z M21.593,37.073
		l6.383,3.578l-7.825,4.578L21.593,37.073z M22.174,46.061l7.559-4.424l7.888,4.424H22.174z M39.723,45.247l-8.251-4.627
		l6.561-3.839L39.723,45.247z M37.19,32.56l-5.679-6.758h4.328L37.19,32.56z M35.492,24.062H23.897l2.144-12.112h7.032
		L35.492,24.062z M13.74,9.553l12.475-4.796c1.043-0.4,2.379-1.421,3.04-2.321L29.59,1.98c0.225-0.308,0.512-0.309,0.75-0.018
		l0.632,0.777c0.698,0.859,2.055,1.84,3.086,2.233l12.006,4.581H13.74z"/>
</g>
<g>
</g>
<g>
</g>
<g>
</g>
<g>
</g>
<g>
</g>
<g>
</g>
<g>
</g>
<g>
</g>
<g>
</g>
<g>
</g>
<g>
</g>
<g>
</g>
<g>
</g>
<g>
</g>
<g>
</g>
</svg>
